<svg version="1.1" xmlns="http://www.w3.org/2000/svg" xmlns:xlink="http://www.w3.org/1999/xlink" preserveAspectRatio="xMidYMid meet" viewBox="622 322 131 109"><g data-item-type="text" data-item="Business" id="logo__item--business" class="logo__item">
</g><g data-item-type="text" id="logo__item--tagline_1" data-item="Tagline" class="logo__item">
  <g class="logo__item__inner" transform="translate(685 472.761468197772) scale(1 1) rotate(0 0 0)">
    <text dy="0" dominant-baseline="auto" alignment-baseline="auto" font-family="Open Sans" font-size="18px" fill="#58595B" letter-spacing="1" data-font-family="Open Sans" data-font-weight="normal" data-font-style="normal" font-weight="normal" font-style="normal" data-ttf-url="/builder_assets/fontsttf/font-open-sans-normal-normal.ttf" data-part-id="logo__item--tagline_1__0" data-font-filename="open-sans-normal-normal"></text>
  </g>
</g><g data-item-type="image" data-item="Image" data-logo-item="" id="logo__item--logo_0" class="logo__item">
  <g class="logo__item__inner" transform="translate(617.6030280352272 313) scale(0.8841010275907215 0.8841010275907215) rotate(0 0 0)">

    <g>
      <g>
        <g>
          <path fill="#2a96e8" d="M49.8,122.5c1.7,2.5,1.3,5.8-1.1,7.5c-2.3,1.7-5.6,1-7.4-1.4c-1.7-2.4-1.3-5.8,1.1-7.5     C44.7,119.4,48.1,120,49.8,122.5z" data-part-id="logo__item--logo_0__0"></path>
          <path fill="#2a96e8" d="M34.8,111.9c1.6,2.3,1.2,5.3-0.9,6.9c-2.2,1.5-5.2,0.9-6.8-1.3c-1.6-2.3-1.2-5.3,0.9-6.9     C30.1,109,33.1,109.6,34.8,111.9z" data-part-id="logo__item--logo_0__1"></path>
          <path fill="#2a96e8" d="M23.9,99.4c1.5,2.1,1.1,4.9-0.9,6.3c-2,1.4-4.8,0.9-6.3-1.2c-1.5-2.1-1.1-4.9,0.9-6.3     C19.6,96.8,22.4,97.3,23.9,99.4z" data-part-id="logo__item--logo_0__2"></path>
          <path fill="#2a96e8" d="M17.2,84.8c1.4,1.9,1,4.4-0.8,5.7c-1.8,1.3-4.3,0.8-5.7-1.1c-1.4-1.9-1-4.5,0.8-5.7     C13.3,82.4,15.9,82.9,17.2,84.8z" data-part-id="logo__item--logo_0__3"></path>
          <path fill="#2a96e8" d="M14.9,68.2c1.2,1.7,0.9,4-0.7,5.2c-1.6,1.1-3.9,0.7-5.1-1c-1.2-1.7-0.9-4,0.7-5.2     C11.4,66.1,13.7,66.5,14.9,68.2z" data-part-id="logo__item--logo_0__4"></path>
          <path fill="#2a96e8" d="M16.6,51.9c1.1,1.5,0.8,3.6-0.6,4.6c-1.4,1-3.5,0.6-4.6-0.9c-1.1-1.5-0.8-3.6,0.7-4.6     C13.5,50,15.5,50.4,16.6,51.9z" data-part-id="logo__item--logo_0__5"></path>
          <path fill="#2a96e8" d="M22.3,37c1,1.3,0.7,3.1-0.6,4c-1.2,0.9-3,0.5-4-0.8c-0.9-1.3-0.7-3.1,0.6-4C19.6,35.4,21.4,35.7,22.3,37z     " data-part-id="logo__item--logo_0__6"></path>
          <path fill="#2a96e8" d="M32,24.6c0.8,1.1,0.6,2.7-0.5,3.4c-1.1,0.8-2.6,0.5-3.4-0.7c-0.8-1.1-0.6-2.7,0.5-3.4     C29.7,23.2,31.2,23.5,32,24.6z" data-part-id="logo__item--logo_0__7"></path>
        </g>
      </g>
      <g>
        <g>
          <path fill="#2a96e8" d="M103.3,115.4c-1.7,2.5-1.2,5.8,1.2,7.4c2.3,1.6,5.7,0.9,7.4-1.5c1.7-2.5,1.2-5.8-1.2-7.4     C108.4,112.3,105,113,103.3,115.4z" data-part-id="logo__item--logo_0__8"></path>
          <path fill="#2a96e8" d="M118.2,104.6c-1.6,2.3-1.1,5.4,1,6.9c2.2,1.5,5.3,0.9,6.8-1.4c1.6-2.3,1.1-5.4-1-6.9     C122.8,101.7,119.8,102.3,118.2,104.6z" data-part-id="logo__item--logo_0__9"></path>
          <path fill="#2a96e8" d="M128.9,92c-1.5,2.1-1,4.9,1,6.3c2,1.4,4.8,0.8,6.2-1.3c1.5-2.1,1-4.9-1-6.3     C133.2,89.3,130.4,89.9,128.9,92z" data-part-id="logo__item--logo_0__10"></path>
          <path fill="#2a96e8" d="M135.4,77.3c-1.3,1.9-0.9,4.5,0.9,5.7c1.8,1.3,4.3,0.7,5.7-1.2c1.3-1.9,1-4.5-0.9-5.7     C139.2,74.9,136.7,75.4,135.4,77.3z" data-part-id="logo__item--logo_0__11"></path>
          <path fill="#2a96e8" d="M137.5,60.7c-1.2,1.7-0.8,4,0.8,5.2c1.6,1.1,3.9,0.7,5.1-1.1c1.2-1.7,0.8-4-0.8-5.1     C141,58.5,138.7,59,137.5,60.7z" data-part-id="logo__item--logo_0__12"></path>
          <path fill="#2a96e8" d="M135.5,44.4c-1.1,1.5-0.7,3.6,0.7,4.6c1.5,1,3.5,0.6,4.6-1c1-1.5,0.7-3.6-0.7-4.6     C138.6,42.5,136.6,42.9,135.5,44.4z" data-part-id="logo__item--logo_0__13"></path>
          <path fill="#2a96e8" d="M129.6,29.6c-0.9,1.3-0.7,3.1,0.6,4c1.3,0.9,3,0.5,4-0.8c0.9-1.3,0.6-3.1-0.6-4     C132.3,27.9,130.5,28.3,129.6,29.6z" data-part-id="logo__item--logo_0__14"></path>
          <path fill="#2a96e8" d="M119.8,17.3c-0.8,1.2-0.6,2.7,0.5,3.4c1.1,0.7,2.6,0.4,3.4-0.7c0.8-1.1,0.5-2.7-0.5-3.4     C122.1,15.9,120.6,16.2,119.8,17.3z" data-part-id="logo__item--logo_0__15"></path>
        </g>
      </g>
      <path fill-rule="evenodd" clip-rule="evenodd" fill="#2a96e8" d="M110.5,13.7c5.2,5.9,5.9,12.7,4.6,19.8   c-2,10.9-8.3,19.5-15.4,27.4c-3,3.3-3.6,5.9-1.5,10.1c6.3,12.4,0.6,29.2-12.3,36.4c2.4-6.1,4.8-11.5,6.5-17.1   c1.8-6.1,0.8-11.9-3.6-17.7c-15,15.4-30.5,29.7-18.1,54.3c-0.7,0.1-1.3,0.2-1.9,0.2c-1.9-2.6-4.2-5-5.7-7.8   c-5.4-10.3-4.6-20.6,1.1-30.4c3.2-5.5,7.4-10.5,11.3-15.6c1.4-1.9,3.1-3.6,5.3-6.1c-4.4-1.5-8.3-2.5-11.8-4.1   c-7.8-3.6-16-6.9-23.1-11.7c-7.1-4.8-11.2-12.1-11.1-21.6c0.9,0.4,1.5,0.4,1.7,0.7c6.4,12.9,18,18.8,31,22.7   c6,1.8,11.9,3.9,17.9,5.7c1.3,0.4,3.4,0.3,4.2-0.5c7.7-7.8,15.7-15.6,18.9-26.4c1.4-4.5,1.3-9.5,1.8-14.2   C110.6,16.5,110.5,15.1,110.5,13.7z" data-part-id="logo__item--logo_0__16"></path>
      <path fill-rule="evenodd" clip-rule="evenodd" fill="#2a96e8" d="M70.7,39.7c0.6-6.4,5.6-10.7,11.7-10.3c6.2,0.4,10.6,6,9.9,12.5   c-0.7,6.3-5.7,10.5-11.9,9.8C74.2,51.1,70.1,46,70.7,39.7z" data-part-id="logo__item--logo_0__17"></path>
    </g>

  </g>
</g></svg>
